{"title":"The.Monuments.Men.2014.BRRip.XviD.MP3-Insane098","uid":10079872,"size":1974111178,"categoryP":"video","categoryS":"movies","magnet":"?xt=urn:btih:a7142d3600f4b1b7a0545f438bfb0b0ceeb7797b&amp;dn=The.Monuments.Men.2014.BRRip.XviD.MP3-Insane098&amp;tr=udp%3A%2F%2Ftracker.openbittorrent.com%3A80&amp;tr=udp%3A%2F%2Fopen.demonii.com%3A1337&amp;tr=udp%3A%2F%2Ftracker.coppersurfer.tk%3A6969&amp;tr=udp%3A%2F%2Fexodus.desync.com%3A6969","seeders":1,"leechers":0,"uploader":"098765432","files":-1,"time":1398985387,"description":" &lt;a href=&quot;http://www.imdb.com/title/tt2177771/&quot; rel=&quot;nofollow&quot; target=&quot;_NEW&quot;&gt;http://www.imdb.com/title/tt2177771/&lt;/a&gt;\n\nPlot:\nAn unlikely World War II platoon is tasked to rescue art masterpieces from Nazi thieves and return them to their owners.\n\nMedia Info:\nGeneral\nComplete name                            : /The.Monuments.Men.2014.BRRip.XviD.MP3-Insane098.avi\nFormat                                   : AVI\nFormat/Info                              : Audio Video Interleave\nFormat profile                           : OpenDML\nFile size                                : 1.84 GiB\nDuration                                 : 1h 58mn\nOverall bit rate                         : 2 221 Kbps\nWriting application                      : Lavf55.33.100\n\nVideo\nID                                       : 0\nFormat                                   : MPEG-4 Visual\nFormat profile                           : Advanced Simple@L5\nFormat settings, BVOP                    : No\nFormat settings, QPel                    : No\nFormat settings, GMC                     : No warppoints\nFormat settings, Matrix                  : Default (H.263)\nCodec ID                                 : XVID\nCodec ID/Hint                            : XviD\nDuration                                 : 1h 58mn\nBit rate                                 : 2 016 Kbps\nWidth                                    : 720 pixels\nHeight                                   : 300 pixels\nDisplay aspect ratio                     : 2.40:1\nFrame rate                               : 23.976 fps\nColor space                              : YUV\nChroma subsampling                       : 4:2:0\nBit depth                                : 8 bits\nScan type                                : Progressive\nCompression mode                         : Lossy\nBits/(Pixel*Frame)                       : 0.389\nStream size                              : 1.67 GiB (91%)\nWriting library                          : XviD 65\n\nAudio\nID                                       : 1\nFormat                                   : MPEG Audio\nFormat version                           : Version 1\nFormat profile                           : Layer 3\nCodec ID                                 : 55\nCodec ID/Hint                            : MP3\nDuration                                 : 1h 58mn\nBit rate mode                            : Constant\nBit rate                                 : 192 Kbps\nChannel count                            : 2 channels\nSampling rate                            : 48.0 KHz\nCompression mode                         : Lossy\nStream size                              : 163 MiB (9%)\nAlignment                                : Aligned on interleaves\nInterleave, duration                     : 24 ms (0.58 video frame)\nInterleave, preload duration             : 24 ms\nWriting library                          : LAME3.99.5","torrent":{"xt":"urn:btih:a7142d3600f4b1b7a0545f438bfb0b0ceeb7797b","amp;dn":"The.Monuments.Men.2014.BRRip.XviD.MP3-Insane098","amp;tr":["udp%3A%2F%2Ftracker.openbittorrent.com%3A80","udp%3A%2F%2Fopen.demonii.com%3A1337","udp%3A%2F%2Ftracker.coppersurfer.tk%3A6969","udp%3A%2F%2Fexodus.desync.com%3A6969"],"infoHash":"a7142d3600f4b1b7a0545f438bfb0b0ceeb7797b","infoHashBuffer":{"type":"Buffer","data":[167,20,45,54,0,244,177,183,160,84,95,67,139,251,11,12,238,183,121,123]},"announce":[],"urlList":[]}}